# xmcd CD database file
#
# Track frame offsets:
#	150
#	3098
#	16300
#	41193
#	53246
#	76256
#	79181
#	110682
#	126417
#	148394
#	167009
#	180673
#	194350
#
# Disc length: 2702 seconds
#
# Revision: 0
# Processed by: cddbd v1.5.1PL0 Copyright (c) Steve Scherf et al.
# Submitted via: CDex 1.51
#
DISCID=af0a8c0d
DTITLE=AK-UNIT - magicalbox -AIR only Collection-
DYEAR=1900
DGENRE=未分類 (日本)
TTITLE0=Conecting YOU -intro-
TTITLE1=鳥の詩 S-X-A Mix (OP EDIT)
TTITLE2=伝承 -folklore- sweet dream Mix (feat. E.Piano)
TTITLE3=てんとう虫 -bug walk- LATIN piano Mix
TTITLE4=川 -river- BreakIceGate BEAT Mix
TTITLE5=てんとう虫 -bug walk- FAMICOM Mix
TTITLE6=Network -interlude-
TTITLE7=縁 -the way so far- feel around TRANCE mix
TTITLE8=神薙 -dissidents- in the deep enTRANCE Mix
TTITLE9=絵空事 -stratus- TRANCE Mix
TTITLE10=水たまり-puddle- Piano solo Mix
TTITLE11=野道 -field path- Love Earth Mix
TTITLE12=Farewell song epilogue piano mix
EXTD=
EXTT0=
EXTT1=
EXTT2=
EXTT3=
EXTT4=
EXTT5=
EXTT6=
EXTT7=
EXTT8=
EXTT9=
EXTT10=
EXTT11=
EXTT12=
PLAYORDER=
